# This file uses centimeters as units for non-parametric coordinates.

mtllib EnergyCubeLP.mtl
g default
v -0.491717 0.638265 0.367257
v -0.341732 0.638265 0.517242
v -0.491717 2.766588 0.367257
v -0.341732 2.766588 0.517242
v 0.508283 0.638265 0.367257
v 0.358298 0.638265 0.517242
v 0.508283 2.766588 0.367257
v 0.358298 2.766588 0.517242
v -0.491717 2.766588 -0.332773
v -0.341732 2.766588 -0.482758
v -0.491717 0.638265 -0.332773
v -0.341732 0.638265 -0.482758
v 0.358298 2.766588 -0.482758
v 0.508283 2.766588 -0.332773
v 0.508283 0.638265 -0.332773
v 0.358298 0.638265 -0.482758
vt 0.308862 0.998008
vt 0.001874 0.998008
vt 0.308862 0.885018
vt 0.001874 0.885018
vt 0.001874 0.791965
vt 0.001874 0.904955
vt 0.308862 0.904955
vt 0.308862 0.791965
vt 0.308862 0.659038
vt 0.001874 0.659038
vt 0.001874 0.678975
vt 0.001874 0.565985
vt 0.308862 0.565985
vt 0.308862 0.678975
vt 0.308862 0.772028
vt 0.001874 0.772028
vt 0.001874 0.546048
vt 0.308862 0.546048
vn 0.000000 0.000000 1.000000
vn 0.000000 0.000000 1.000000
vn 0.000000 0.000000 1.000000
vn 0.000000 0.000000 1.000000
vn 0.000000 0.000000 -1.000000
vn 0.000000 0.000000 -1.000000
vn 0.000000 0.000000 -1.000000
vn 0.000000 0.000000 -1.000000
vn 1.000000 0.000000 0.000000
vn 1.000000 0.000000 0.000000
vn 1.000000 0.000000 0.000000
vn 1.000000 0.000000 0.000000
vn -1.000000 0.000000 0.000000
vn -1.000000 0.000000 0.000000
vn -1.000000 0.000000 0.000000
vn -1.000000 0.000000 0.000000
vn -0.707107 0.000000 0.707107
vn -0.707107 0.000000 0.707107
vn -0.707107 0.000000 0.707107
vn -0.707107 0.000000 0.707107
vn 0.707107 0.000000 0.707107
vn 0.707107 0.000000 0.707107
vn 0.707107 0.000000 0.707107
vn 0.707107 0.000000 0.707107
vn -0.707107 0.000000 -0.707107
vn -0.707107 0.000000 -0.707107
vn -0.707107 0.000000 -0.707107
vn -0.707107 0.000000 -0.707107
vn 0.707107 0.000000 -0.707107
vn 0.707107 0.000000 -0.707107
vn 0.707107 0.000000 -0.707107
vn 0.707107 0.000000 -0.707107
g pCube2
usemtl lambert2SG
f 4/1/1 2/2/2 6/6/3 8/7/4
f 12/11/5 10/14/6 13/15/7 16/16/8
f 7/3/9 5/4/10 15/5/11 14/8/12
f 9/9/13 11/10/14 1/12/15 3/13/16
f 1/12/17 2/17/18 4/18/19 3/13/20
f 6/6/21 5/4/22 7/3/23 8/7/24
f 9/9/25 10/14/26 12/11/27 11/10/28
f 13/15/29 14/8/30 15/5/31 16/16/32
g default
v -0.557748 2.772374 0.391516
v -0.390440 2.772374 0.558824
v -0.557748 3.483930 0.391516
v -0.390440 3.483930 0.558824
v 0.557748 2.772374 0.391516
v 0.390440 2.772374 0.558824
v 0.557748 3.483930 0.391516
v 0.390440 3.483930 0.558824
v -0.557748 3.483930 -0.389364
v -0.390440 3.483930 -0.556671
v -0.557748 2.772374 -0.389364
v -0.390440 2.772374 -0.556671
v 0.390440 3.483930 -0.556671
v 0.557748 3.483930 -0.389364
v 0.557748 2.772374 -0.389364
v 0.390440 2.772374 -0.556671
vt 0.250794 0.024786
vt 0.273589 0.001992
vt 0.250794 0.518723
vt 0.153851 0.518723
vt 0.379977 0.001992
vt 0.402771 0.024786
vt 0.402771 0.131175
vt 0.379977 0.153969
vt 0.153851 0.412334
vt 0.250794 0.412334
vt 0.250794 0.389540
vt 0.153851 0.389540
vt 0.153851 0.283152
vt 0.153851 0.153969
vt 0.250794 0.153969
vt 0.250794 0.283152
vt 0.250794 0.131175
vt 0.153851 0.131175
vt 0.250794 0.260357
vt 0.153851 0.024786
vt 0.153851 0.260357
vt 0.153851 0.541517
vt 0.250794 0.541517
vt 0.273589 0.153969
vt 0.131056 0.153969
vt 0.024668 0.153969
vt 0.001874 0.131175
vt 0.001874 0.024786
vt 0.024668 0.001992
vt 0.131056 0.001992
vn 0.000000 0.000000 1.000000
vn 0.000000 0.000000 1.000000
vn 0.000000 0.000000 1.000000
vn 0.000000 0.000000 1.000000
vn 0.000000 0.000000 -1.000000
vn 0.000000 0.000000 -1.000000
vn 0.000000 0.000000 -1.000000
vn 0.000000 0.000000 -1.000000
vn 1.000000 0.000000 0.000000
vn 1.000000 0.000000 0.000000
vn 1.000000 0.000000 0.000000
vn 1.000000 0.000000 0.000000
vn -1.000000 0.000000 0.000000
vn -1.000000 0.000000 0.000000
vn -1.000000 0.000000 0.000000
vn -1.000000 0.000000 0.000000
vn 0.000000 1.000000 0.000000
vn 0.000000 1.000000 0.000000
vn 0.000000 1.000000 0.000000
vn 0.000000 1.000000 0.000000
vn 0.000000 1.000000 0.000000
vn 0.000000 1.000000 0.000000
vn 0.000000 1.000000 0.000000
vn 0.000000 1.000000 0.000000
vn 0.000000 -1.000000 0.000000
vn 0.000000 -1.000000 0.000000
vn 0.000000 -1.000000 0.000000
vn 0.000000 -1.000000 0.000000
vn 0.000000 -1.000000 0.000000
vn 0.000000 -1.000000 0.000000
vn 0.000000 -1.000000 0.000000
vn 0.000000 -1.000000 0.000000
vn -0.707107 0.000000 0.707107
vn -0.707107 0.000000 0.707107
vn -0.707107 0.000000 0.707107
vn -0.707107 0.000000 0.707107
vn 0.707107 0.000000 0.707107
vn 0.707107 0.000000 0.707107
vn 0.707107 0.000000 0.707107
vn 0.707107 0.000000 0.707107
vn -0.707107 0.000000 -0.707107
vn -0.707107 0.000000 -0.707107
vn -0.707107 0.000000 -0.707107
vn -0.707107 0.000000 -0.707107
vn 0.707107 0.000000 -0.707107
vn 0.707107 0.000000 -0.707107
vn 0.707107 0.000000 -0.707107
vn 0.707107 0.000000 -0.707107
g pCube3
usemtl initialShadingGroup
f 20/21/33 18/22/34 22/27/35 24/28/36
f 28/32/37 26/33/38 29/37/39 32/39/40
f 23/29/41 21/30/42 31/31/43 30/34/44
f 25/35/45 27/36/46 17/38/47 19/19/48
f 19/19/49 20/20/50 24/23/51 23/24/52 30/25/53 29/26/54 26/42/55 25/35/56
f 27/36/57 28/43/58 32/44/59 31/45/60 21/46/61 22/47/62 18/48/63 17/38/64
f 17/40/65 18/22/66 20/21/67 19/41/68
f 22/27/69 21/30/70 23/29/71 24/28/72
f 25/35/73 26/33/74 28/32/75 27/36/76
f 29/37/77 30/34/78 31/31/79 32/39/80
g default
v -0.054140 0.612551 0.395251
v -0.054140 2.772552 0.395251
v 0.065987 0.612551 0.395251
v 0.065987 2.772552 0.395251
v -0.054140 2.772552 0.053622
v -0.054140 0.612551 0.053622
v 0.065987 2.772552 0.053622
v 0.065987 0.612551 0.053622
v -0.114193 0.612551 0.292741
v -0.084169 0.612551 0.365222
v -0.084169 2.772552 0.365222
v -0.114193 2.772552 0.292741
v 0.096015 0.612551 0.365222
v 0.126037 0.612551 0.292741
v 0.126037 2.772552 0.292741
v 0.096015 2.772552 0.365222
v -0.114193 2.772552 0.156133
v -0.084169 2.772552 0.083651
v -0.084169 0.612551 0.083651
v -0.114193 0.612551 0.156133
v 0.096015 2.772552 0.083651
v 0.126037 2.772552 0.156132
v 0.126037 0.612551 0.156132
v 0.096015 0.612551 0.083651
vt 0.858162 0.363935
vt 0.858162 0.137107
vt 0.849848 0.378128
vt 0.854005 0.368093
vt 0.874794 0.363935
vt 0.878951 0.368093
vt 0.883108 0.378128
vt 0.883108 0.397041
vt 0.878951 0.407076
vt 0.874794 0.411233
vt 0.858162 0.411233
vt 0.854005 0.407076
vt 0.849848 0.397041
vt 0.849848 0.104002
vt 0.854005 0.093967
vt 0.858162 0.089809
vt 0.874794 0.089809
vt 0.888986 0.363935
vt 0.874794 0.137107
vt 0.888986 0.137107
vt 0.938723 0.137107
vt 0.907899 0.137107
vt 0.907899 0.363935
vt 0.878951 0.093967
vt 0.938723 0.363935
vt 0.922092 0.363935
vt 0.883108 0.104002
vt 0.922092 0.137107
vt 0.825057 0.363935
vt 0.825057 0.137107
vt 0.843970 0.137107
vt 0.843970 0.363935
vt 0.854005 0.363935
vt 0.854005 0.137107
vt 0.878951 0.137107
vt 0.878951 0.363935
vt 0.815022 0.137107
vt 0.815022 0.363935
vt 0.810864 0.363935
vt 0.810864 0.137107
vt 0.917934 0.363935
vt 0.917934 0.137107
vt 0.883108 0.122915
vt 0.878951 0.132950
vt 0.854005 0.132950
vt 0.849848 0.122915
vn 0.000000 0.000000 1.000000
vn 0.000000 0.000000 1.000000
vn 0.000000 0.000000 1.000000
vn 0.000000 0.000000 1.000000
vn 0.000000 0.000000 -1.000000
vn 0.000000 0.000000 -1.000000
vn 0.000000 0.000000 -1.000000
vn 0.000000 0.000000 -1.000000
vn 0.989848 0.000000 0.142126
vn 0.989848 0.000000 0.142126
vn 0.989848 0.000000 -0.142126
vn 0.989848 0.000000 -0.142126
vn -0.989847 0.000000 -0.142135
vn -0.989847 0.000000 -0.142135
vn -0.989847 0.000000 0.142135
vn -0.989847 0.000000 0.142135
vn -0.862842 0.000000 0.505474
vn -0.862842 0.000000 0.505474
vn -0.707105 0.000000 0.707109
vn -0.707105 0.000000 0.707109
vn 0.707112 0.000000 0.707101
vn 0.862851 0.000000 0.505458
vn 0.862851 0.000000 0.505458
vn 0.707112 0.000000 0.707101
vn -0.862842 0.000000 -0.505474
vn -0.862842 0.000000 -0.505474
vn -0.707105 0.000000 -0.707109
vn -0.707105 0.000000 -0.707109
vn 0.707112 0.000000 -0.707101
vn 0.862852 0.000000 -0.505458
vn 0.862852 0.000000 -0.505458
vn 0.707112 0.000000 -0.707101
vn 0.000000 1.000000 0.000000
vn 0.000000 1.000000 0.000000
vn 0.000000 1.000000 0.000000
vn 0.000000 1.000000 0.000000
vn 0.000000 1.000000 0.000000
vn 0.000000 1.000000 0.000000
vn 0.000000 1.000000 0.000000
vn 0.000000 1.000000 0.000000
vn 0.000000 1.000000 0.000000
vn 0.000000 1.000000 0.000000
vn 0.000000 1.000000 0.000000
vn 0.000000 1.000000 0.000000
vn 0.000000 -1.000000 -0.000000
vn 0.000000 -1.000000 -0.000000
vn 0.000000 -1.000000 -0.000000
vn 0.000000 -1.000000 -0.000000
vn 0.000000 -1.000000 -0.000000
vn 0.000000 -1.000000 -0.000000
vn 0.000000 -1.000000 -0.000000
vn 0.000000 -1.000000 -0.000000
vn 0.000000 -1.000000 -0.000000
vn 0.000000 -1.000000 -0.000000
vn 0.000000 -1.000000 -0.000000
vn 0.000000 -1.000000 -0.000000
g pCube4
usemtl initialShadingGroup
f 34/49/81 33/50/82 35/67/83 36/53/84
f 38/69/85 37/73/86 39/74/87 40/76/88
f 47/66/89 46/68/90 55/70/91 54/71/92
f 49/77/93 52/78/94 41/79/95 44/80/96
f 43/81/97 42/82/98 33/50/99 34/49/100
f 35/67/101 45/83/102 48/84/103 36/53/104
f 51/85/105 50/86/106 37/87/107 38/88/108
f 39/74/109 53/89/110 56/90/111 40/76/112
f 44/51/113 43/52/114 34/49/115 36/53/116 48/54/117 47/55/118 54/56/119 53/57/120 39/58/121 37/59/122 50/60/123 49/61/124
f 52/62/125 51/63/126 38/64/127 40/65/128 56/72/129 55/75/130 46/91/131 45/92/132 35/67/133 33/50/134 42/93/135 41/94/136
f 41/79/95 42/82/98 43/81/97 44/80/96
f 45/83/102 46/68/90 47/66/89 48/84/103
f 49/77/93 50/86/106 51/85/105 52/78/94
f 53/89/110 54/71/92 55/70/91 56/90/111
g default
v -0.557748 -0.058406 0.391516
v -0.390440 -0.058406 0.558824
v -0.557748 0.653150 0.391516
v -0.390440 0.653150 0.558824
v 0.557748 -0.058406 0.391516
v 0.390440 -0.058406 0.558824
v 0.557748 0.653150 0.391516
v 0.390440 0.653150 0.558824
v -0.557748 0.653150 -0.389364
v -0.390440 0.653150 -0.556671
v -0.557748 -0.058406 -0.389364
v -0.390440 -0.058406 -0.556671
v 0.390440 0.653150 -0.556671
v 0.557748 0.653150 -0.389364
v 0.557748 -0.058406 -0.389364
v 0.390440 -0.058406 -0.556671
vt 0.657130 0.024786
vt 0.679924 0.001992
vt 0.657130 0.518723
vt 0.560186 0.518723
vt 0.786313 0.001992
vt 0.809107 0.024786
vt 0.809107 0.131175
vt 0.786313 0.153969
vt 0.560186 0.412334
vt 0.657130 0.412334
vt 0.657130 0.389540
vt 0.560186 0.389540
vt 0.560186 0.283152
vt 0.560186 0.153969
vt 0.657130 0.153969
vt 0.657130 0.283152
vt 0.657130 0.131175
vt 0.560186 0.131175
vt 0.657130 0.260357
vt 0.560186 0.024786
vt 0.560186 0.260357
vt 0.560186 0.541517
vt 0.657130 0.541517
vt 0.679924 0.153969
vt 0.537392 0.153969
vt 0.431003 0.153969
vt 0.408209 0.131175
vt 0.408209 0.024786
vt 0.431003 0.001992
vt 0.537392 0.001992
vn 0.000000 0.000000 1.000000
vn 0.000000 0.000000 1.000000
vn 0.000000 0.000000 1.000000
vn 0.000000 0.000000 1.000000
vn 0.000000 0.000000 -1.000000
vn 0.000000 0.000000 -1.000000
vn 0.000000 0.000000 -1.000000
vn 0.000000 0.000000 -1.000000
vn 1.000000 0.000000 0.000000
vn 1.000000 0.000000 0.000000
vn 1.000000 0.000000 0.000000
vn 1.000000 0.000000 0.000000
vn -1.000000 0.000000 0.000000
vn -1.000000 0.000000 0.000000
vn -1.000000 0.000000 0.000000
vn -1.000000 0.000000 0.000000
vn 0.000000 1.000000 0.000000
vn 0.000000 1.000000 0.000000
vn 0.000000 1.000000 0.000000
vn 0.000000 1.000000 0.000000
vn 0.000000 1.000000 0.000000
vn 0.000000 1.000000 0.000000
vn 0.000000 1.000000 0.000000
vn 0.000000 1.000000 0.000000
vn 0.000000 -1.000000 0.000000
vn 0.000000 -1.000000 0.000000
vn 0.000000 -1.000000 0.000000
vn 0.000000 -1.000000 0.000000
vn 0.000000 -1.000000 0.000000
vn 0.000000 -1.000000 0.000000
vn 0.000000 -1.000000 0.000000
vn 0.000000 -1.000000 0.000000
vn -0.707107 0.000000 0.707107
vn -0.707107 0.000000 0.707107
vn -0.707107 0.000000 0.707107
vn -0.707107 0.000000 0.707107
vn 0.707107 0.000000 0.707107
vn 0.707107 0.000000 0.707107
vn 0.707107 0.000000 0.707107
vn 0.707107 0.000000 0.707107
vn -0.707107 0.000000 -0.707107
vn -0.707107 0.000000 -0.707107
vn -0.707107 0.000000 -0.707107
vn -0.707107 0.000000 -0.707107
vn 0.707107 0.000000 -0.707107
vn 0.707107 0.000000 -0.707107
vn 0.707107 0.000000 -0.707107
vn 0.707107 0.000000 -0.707107
g pCube5
usemtl initialShadingGroup
f 60/97/137 58/98/138 62/103/139 64/104/140
f 68/108/141 66/109/142 69/113/143 72/115/144
f 63/105/145 61/106/146 71/107/147 70/110/148
f 65/111/149 67/112/150 57/114/151 59/95/152
f 59/95/153 60/96/154 64/99/155 63/100/156 70/101/157 69/102/158 66/118/159 65/111/160
f 67/112/161 68/119/162 72/120/163 71/121/164 61/122/165 62/123/166 58/124/167 57/114/168
f 57/116/169 58/98/170 60/97/171 59/117/172
f 62/103/173 61/106/174 63/105/175 64/104/176
f 65/111/177 66/109/178 68/108/179 67/112/180
f 69/113/181 70/110/182 71/107/183 72/115/184
g default
v -0.054140 0.612551 -0.074906
v -0.054140 2.772552 -0.074906
v 0.065987 0.612551 -0.074906
v 0.065987 2.772552 -0.074906
v -0.054140 2.772552 -0.416534
v -0.054140 0.612551 -0.416534
v 0.065987 2.772552 -0.416534
v 0.065987 0.612551 -0.416534
v -0.114193 0.612551 -0.177416
v -0.084169 0.612551 -0.104935
v -0.084169 2.772552 -0.104935
v -0.114193 2.772552 -0.177416
v 0.096015 0.612551 -0.104934
v 0.126037 0.612551 -0.177416
v 0.126037 2.772552 -0.177416
v 0.096015 2.772552 -0.104934
v -0.114193 2.772552 -0.314024
v -0.084169 2.772552 -0.386505
v -0.084169 0.612551 -0.386505
v -0.114193 0.612551 -0.314024
v 0.096015 2.772552 -0.386505
v 0.126037 2.772552 -0.314024
v 0.126037 0.612551 -0.314024
v 0.096015 0.612551 -0.386505
vt 0.858162 0.363935
vt 0.858162 0.137107
vt 0.849848 0.378128
vt 0.854005 0.368093
vt 0.874794 0.363935
vt 0.878951 0.368093
vt 0.883108 0.378128
vt 0.883108 0.397041
vt 0.878951 0.407076
vt 0.874794 0.411233
vt 0.858162 0.411233
vt 0.854005 0.407076
vt 0.849848 0.397041
vt 0.849848 0.104002
vt 0.854005 0.093967
vt 0.858162 0.089809
vt 0.874794 0.089809
vt 0.888986 0.363935
vt 0.874794 0.137107
vt 0.888986 0.137107
vt 0.938723 0.137107
vt 0.907899 0.137107
vt 0.907899 0.363935
vt 0.878951 0.093967
vt 0.938723 0.363935
vt 0.922092 0.363935
vt 0.883108 0.104002
vt 0.922092 0.137107
vt 0.825057 0.363935
vt 0.825057 0.137107
vt 0.843970 0.137107
vt 0.843970 0.363935
vt 0.854005 0.363935
vt 0.854005 0.137107
vt 0.878951 0.137107
vt 0.878951 0.363935
vt 0.815022 0.137107
vt 0.815022 0.363935
vt 0.810864 0.363935
vt 0.810864 0.137107
vt 0.917934 0.363935
vt 0.917934 0.137107
vt 0.883108 0.122915
vt 0.878951 0.132950
vt 0.854005 0.132950
vt 0.849848 0.122915
vn 0.000000 0.000000 1.000000
vn 0.000000 0.000000 1.000000
vn 0.000000 0.000000 1.000000
vn 0.000000 0.000000 1.000000
vn 0.000000 0.000000 -1.000000
vn 0.000000 0.000000 -1.000000
vn 0.000000 0.000000 -1.000000
vn 0.000000 0.000000 -1.000000
vn 0.989848 0.000000 0.142126
vn 0.989848 0.000000 0.142126
vn 0.989848 0.000000 -0.142126
vn 0.989848 0.000000 -0.142126
vn -0.989847 0.000000 -0.142135
vn -0.989847 0.000000 -0.142135
vn -0.989847 0.000000 0.142135
vn -0.989847 0.000000 0.142135
vn -0.862842 0.000000 0.505474
vn -0.862842 0.000000 0.505474
vn -0.707105 0.000000 0.707109
vn -0.707105 0.000000 0.707109
vn 0.707112 0.000000 0.707101
vn 0.862851 0.000000 0.505458
vn 0.862851 0.000000 0.505458
vn 0.707112 0.000000 0.707101
vn -0.862842 0.000000 -0.505474
vn -0.862842 0.000000 -0.505474
vn -0.707105 0.000000 -0.707109
vn -0.707105 0.000000 -0.707109
vn 0.707112 0.000000 -0.707101
vn 0.862852 0.000000 -0.505458
vn 0.862852 0.000000 -0.505458
vn 0.707112 0.000000 -0.707101
vn 0.000000 1.000000 0.000000
vn 0.000000 1.000000 0.000000
vn 0.000000 1.000000 0.000000
vn 0.000000 1.000000 0.000000
vn 0.000000 1.000000 0.000000
vn 0.000000 1.000000 0.000000
vn 0.000000 1.000000 0.000000
vn 0.000000 1.000000 0.000000
vn 0.000000 1.000000 0.000000
vn 0.000000 1.000000 0.000000
vn 0.000000 1.000000 0.000000
vn 0.000000 1.000000 0.000000
vn 0.000000 -1.000000 -0.000000
vn 0.000000 -1.000000 -0.000000
vn 0.000000 -1.000000 -0.000000
vn 0.000000 -1.000000 -0.000000
vn 0.000000 -1.000000 -0.000000
vn 0.000000 -1.000000 -0.000000
vn 0.000000 -1.000000 -0.000000
vn 0.000000 -1.000000 -0.000000
vn 0.000000 -1.000000 -0.000000
vn 0.000000 -1.000000 -0.000000
vn 0.000000 -1.000000 -0.000000
vn 0.000000 -1.000000 -0.000000
g pCube6
usemtl initialShadingGroup
f 74/125/185 73/126/186 75/143/187 76/129/188
f 78/145/189 77/149/190 79/150/191 80/152/192
f 87/142/193 86/144/194 95/146/195 94/147/196
f 89/153/197 92/154/198 81/155/199 84/156/200
f 83/157/201 82/158/202 73/126/203 74/125/204
f 75/143/205 85/159/206 88/160/207 76/129/208
f 91/161/209 90/162/210 77/163/211 78/164/212
f 79/150/213 93/165/214 96/166/215 80/152/216
f 84/127/217 83/128/218 74/125/219 76/129/220 88/130/221 87/131/222 94/132/223 93/133/224 79/134/225 77/135/226 90/136/227 89/137/228
f 92/138/229 91/139/230 78/140/231 80/141/232 96/148/233 95/151/234 86/167/235 85/168/236 75/143/237 73/126/238 82/169/239 81/170/240
f 81/155/199 82/158/202 83/157/201 84/156/200
f 85/159/206 86/144/194 87/142/193 88/160/207
f 89/153/197 90/162/210 91/161/209 92/154/198
f 93/165/214 94/147/196 95/146/195 96/166/215
